{
	"asset":{
		"generator":"Khronos glTF Blender I/O v4.3.47",
		"version":"2.0"
	},
	"extensionsUsed":[
		"KHR_materials_clearcoat",
		"KHR_materials_transmission",
		"KHR_materials_ior"
	],
	"scene":0,
	"scenes":[
		{
			"name":"Scene",
			"nodes":[
				2
			]
		}
	],
	"nodes":[
		{
			"mesh":0,
			"name":"love potion.003"
		},
		{
			"mesh":1,
			"name":"Sphere.001"
		},
		{
			"children":[
				0,
				1
			],
			"mesh":2,
			"name":"love potion.002"
		}
	],
	"materials":[
		{
			"doubleSided":true,
			"extensions":{
				"KHR_materials_clearcoat":{
					"clearcoatFactor":0.14999999105930328
				},
				"KHR_materials_transmission":{
					"transmissionFactor":1
				},
				"KHR_materials_ior":{
					"ior":1.0199999809265137
				}
			},
			"name":"glass.002",
			"pbrMetallicRoughness":{
				"baseColorFactor":[
					0.8931774497032166,
					0.01894845999777317,
					0.008050737902522087,
					1
				],
				"metallicFactor":0.3199999928474426,
				"roughnessFactor":0.04181817173957825
			}
		},
		{
			"doubleSided":true,
			"extensions":{
				"KHR_materials_clearcoat":{
					"clearcoatFactor":1,
					"clearcoatRoughnessFactor":0.15763632953166962
				},
				"KHR_materials_transmission":{
					"transmissionFactor":1
				},
				"KHR_materials_ior":{
					"ior":1
				}
			},
			"name":"glass.003",
			"pbrMetallicRoughness":{
				"baseColorFactor":[
					0.698736846446991,
					0.0163791012018919,
					0.007328958250582218,
					1
				],
				"metallicFactor":0.5309091210365295,
				"roughnessFactor":0.15381817519664764
			}
		},
		{
			"doubleSided":true,
			"extensions":{
				"KHR_materials_transmission":{
					"transmissionFactor":1
				},
				"KHR_materials_ior":{
					"ior":1.100000023841858
				}
			},
			"name":"glass.005",
			"pbrMetallicRoughness":{
				"baseColorFactor":[
					0.800000011920929,
					0.800000011920929,
					0.800000011920929,
					1
				],
				"metallicFactor":0.05454545468091965,
				"metallicRoughnessTexture":{
					"index":0
				}
			}
		}
	],
	"meshes":[
		{
			"name":"Vert.007",
			"primitives":[
				{
					"attributes":{
						"POSITION":0,
						"NORMAL":1
					},
					"indices":2,
					"material":0
				}
			]
		},
		{
			"name":"Sphere.001",
			"primitives":[
				{
					"attributes":{
						"POSITION":3,
						"NORMAL":4,
						"TEXCOORD_0":5
					},
					"indices":6,
					"material":1
				}
			]
		},
		{
			"name":"Vert.006",
			"primitives":[
				{
					"attributes":{
						"POSITION":7,
						"NORMAL":8,
						"TEXCOORD_0":9
					},
					"indices":10,
					"material":2
				}
			]
		}
	],
	"textures":[
		{
			"sampler":0,
			"source":0
		}
	],
	"images":[
		{
			"mimeType":"image/png",
			"name":"Untitled",
			"uri":"Untitled.png"
		}
	],
	"accessors":[
		{
			"bufferView":0,
			"componentType":5126,
			"count":2762,
			"max":[
				1.5659756660461426,
				-0.3572249412536621,
				0.897781252861023
			],
			"min":[
				-1.9563764333724976,
				-2.5833516120910645,
				-1.0122954845428467
			],
			"type":"VEC3"
		},
		{
			"bufferView":1,
			"componentType":5126,
			"count":2762,
			"type":"VEC3"
		},
		{
			"bufferView":2,
			"componentType":5123,
			"count":16560,
			"type":"SCALAR"
		},
		{
			"bufferView":3,
			"componentType":5126,
			"count":6528,
			"max":[
				0.8058822751045227,
				2.36613130569458,
				0.3288867473602295
			],
			"min":[
				0.2296239733695984,
				1.3259427547454834,
				-0.05869491398334503
			],
			"type":"VEC3"
		},
		{
			"bufferView":4,
			"componentType":5126,
			"count":6528,
			"type":"VEC3"
		},
		{
			"bufferView":5,
			"componentType":5126,
			"count":6528,
			"type":"VEC2"
		},
		{
			"bufferView":6,
			"componentType":5123,
			"count":37056,
			"type":"SCALAR"
		},
		{
			"bufferView":7,
			"componentType":5126,
			"count":11064,
			"max":[
				1.697068452835083,
				1.62584388256073,
				0.9514515399932861
			],
			"min":[
				-2.117032527923584,
				-2.688164472579956,
				-1.0752997398376465
			],
			"type":"VEC3"
		},
		{
			"bufferView":8,
			"componentType":5126,
			"count":11064,
			"type":"VEC3"
		},
		{
			"bufferView":9,
			"componentType":5126,
			"count":11064,
			"type":"VEC2"
		},
		{
			"bufferView":10,
			"componentType":5123,
			"count":56640,
			"type":"SCALAR"
		}
	],
	"bufferViews":[
		{
			"buffer":0,
			"byteLength":33144,
			"byteOffset":0,
			"target":34962
		},
		{
			"buffer":0,
			"byteLength":33144,
			"byteOffset":33144,
			"target":34962
		},
		{
			"buffer":0,
			"byteLength":33120,
			"byteOffset":66288,
			"target":34963
		},
		{
			"buffer":0,
			"byteLength":78336,
			"byteOffset":99408,
			"target":34962
		},
		{
			"buffer":0,
			"byteLength":78336,
			"byteOffset":177744,
			"target":34962
		},
		{
			"buffer":0,
			"byteLength":52224,
			"byteOffset":256080,
			"target":34962
		},
		{
			"buffer":0,
			"byteLength":74112,
			"byteOffset":308304,
			"target":34963
		},
		{
			"buffer":0,
			"byteLength":132768,
			"byteOffset":382416,
			"target":34962
		},
		{
			"buffer":0,
			"byteLength":132768,
			"byteOffset":515184,
			"target":34962
		},
		{
			"buffer":0,
			"byteLength":88512,
			"byteOffset":647952,
			"target":34962
		},
		{
			"buffer":0,
			"byteLength":113280,
			"byteOffset":736464,
			"target":34963
		}
	],
	"samplers":[
		{
			"magFilter":9729,
			"minFilter":9987
		}
	],
	"buffers":[
		{
			"byteLength":849744,
			"uri":"poison_bottle3.bin"
		}
	]
}
